<svg xmlns="http://www.w3.org/2000/svg" viewBox="0 0 1024 1024" width="1024" height="1024" role="img" aria-label="Prof. Peptide coupon tag">
<g transform="translate(512,512) scale(1.12) translate(-512,-512) translate(0.000000,1024.000000) scale(0.100000,-0.100000)" fill="#3A759F" stroke="none">
<path d="M8685 9405 c-137 -8 -396 -18 -575 -24 -179 -6 -496 -19 -705 -30
-591 -32 -773 -40 -1010 -46 -466 -13 -506 -20 -585 -104 -25 -26 -299 -319
-610 -650 -311 -331 -691 -736 -845 -900 -154 -164 -376 -401 -494 -527 -118
-126 -294 -312 -391 -414 -97 -102 -241 -255 -321 -340 -309 -333 -530 -570
-669 -717 -352 -370 -599 -633 -780 -828 -317 -341 -481 -516 -551 -585 -106
-104 -131 -163 -93 -220 19 -28 1763 -1782 2598 -2613 325 -323 559 -548 586
-563 55 -31 118 -29 174 5 20 13 98 93 174 179 75 86 171 193 213 237 42 44
201 222 354 395 153 173 298 335 323 360 24 24 172 190 329 367 156 178 299
337 317 355 18 18 124 137 236 263 350 397 392 444 399 447 4 2 135 149 292
328 157 179 301 341 320 360 34 34 353 391 509 569 41 48 113 127 160 176 48
50 198 218 335 375 137 157 279 317 316 355 109 113 459 517 477 550 24 46 25
137 8 860 -9 369 -19 940 -22 1270 -3 330 -9 698 -12 817 -11 328 5 318 -457
293z m-960 -1009 c108 -23 221 -98 302 -199 143 -181 168 -384 72 -596 -163
-356 -640 -440 -919 -161 -267 266 -208 706 120 901 107 63 282 86 425 55z"/>
</g>
</svg>
