<svg xmlns="http://www.w3.org/2000/svg" viewBox="0 0 1024 1024" width="1024" height="1024" role="img" aria-label="Prof. Peptide">
<rect width="1024" height="1024" fill="#0f172a"/>
<rect x="88" y="88" width="848" height="848" rx="140" ry="140" fill="none" stroke="#0891b2" stroke-width="16"/>
<g transform="translate(0.000000,1024.000000) scale(0.100000,-0.100000)" fill="#f0f4f8"><path d="M2750 5435 l0 -1505 300 0 300 0 0 569 0 568 388 6 c541 8 668 26
850 123 170 89 284 207 368 379 65 135 87 243 87 440 0 302 -70 491 -248 670
-88 89 -167 141 -275 181 -164 62 -355 74 -1172 74 l-598 0 0 -1505z m1248
985 c205 -21 322 -93 391 -240 23 -49 26 -67 26 -170 0 -104 -3 -120 -27 -173
-34 -72 -65 -111 -130 -160 -101 -75 -244 -97 -649 -97 l-259 0 0 425 0 425
274 0 c151 0 319 -5 374 -10z M6625 6161 c-193 -31 -384 -143 -508 -297 l-52
-66 -3 156 -3 156 -264 0 -265 0 0 -1505 0 -1505 285 0 285 0 0 540 0 541 94
-83 c52 -46 119 -98 150 -117 264 -159 597 -144 866 39 64 44 192 174 239 243
84 123 152 312 183 502 19 122 16 438 -6 560 -63 351 -230 602 -497 749 -133
72 -355 111 -504 87z m88 -471 c173 -54 293 -213 333 -441 21 -123 16 -408
-10 -519 -56 -236 -206 -384 -404 -397 -95 -7 -164 7 -245 50 -67 35 -159 129
-199 203 -91 168 -120 512 -63 736 75 289 329 448 588 368z"/></g>
</svg>
